# xmcd
#
# Track frame offsets:
# 150
# 15710
# 32025
# 47847
# 64345
# 77755
# 91890
# 105010
# 117930
# 133040
# 146900
# 165210
# 179397
# 198682
#
# Disc length: 2923 seconds
#
#
# Revision: 6
# Processed by: cddbd v1.5.2PL0 Copyright (c) Steve Scherf et al.
# Submitted via: FreeRIP 2.945 
#
DISCID=b90b690e
DTITLE=Bill Wyman's Rhythm Kings - Anyway The Wind Blows
DYEAR=1998
DGENRE=Rock
TTITLE0=Anyway The Wind Blows
TTITLE1=Spooky
TTITLE2=Walking One and Only
TTITLE3=Mojo Boogie
TTITLE4=Too Late
TTITLE5=Every Sixty Seconds
TTITLE6=Ring My Bell
TTITLE7=Days Like This
TTITLE8=He's A Real Gone Guy
TTITLE9=A True Romance
TTITLE10=Gee Baby Ain't I Good To You
TTITLE11=When Hollywood Goes Black and Tan
TTITLE12=Crazy He Calls Me
TTITLE13=Struttin' Our Stuff
EXTD=YEAR: 1998
EXTT0=
EXTT1=
EXTT2=
EXTT3=
EXTT4=
EXTT5=
EXTT6=
EXTT7=
EXTT8=
EXTT9=
EXTT10=
EXTT11=
EXTT12=
EXTT13=
PLAYORDER=
